<svg width="18" height="18" viewBox="0 0 18 18" fill="none" xmlns="http://www.w3.org/2000/svg">
<path fill-rule="evenodd" clip-rule="evenodd" d="M10 16H14.5V12H10V16ZM3.5 16H8V12H3.5V16ZM2 6.2C2 6.117 2.013 6.05 2.026 6H5.143H8V10H2.026C2.013 9.95 2 9.883 2 9.8V6.2ZM4 3C4 2.448 4.513 2 5.143 2C6.4 2 7.17 3.09 7.594 4H5.143C4.513 4 4 3.552 4 3ZM12.857 2C13.487 2 14 2.448 14 3C14 3.552 13.487 4 12.857 4H10.4C10.82 3.09 11.588 2 12.857 2ZM16 6.2V9.8C16 9.883 15.987 9.95 15.974 10H10V6H12.857H15.974C15.987 6.05 16 6.117 16 6.2ZM16.2 4H15.807C15.925 3.686 16 3.353 16 3C16 1.346 14.59 0 12.857 0C10.935 0 9.729 1.199 9 2.397C8.271 1.199 7.065 0 5.143 0C3.41 0 2 1.346 2 3C2 3.353 2.076 3.686 2.193 4H1.8C0.791 4 0 4.967 0 6.2V9.8C0 10.907 0.64 11.793 1.5 11.964V16.333C1.5 17.252 2.313 18 3.312 18H14.687C15.687 18 16.5 17.252 16.5 16.333V11.964C17.36 11.793 18 10.907 18 9.8V6.2C18 4.967 17.209 4 16.2 4Z" fill="#00A98B"/>
</svg>
