<svg width="18" height="18" viewBox="0 0 18 18" fill="none" xmlns="http://www.w3.org/2000/svg">
<path fill-rule="evenodd" clip-rule="evenodd" d="M15.4433 18H9.81831V12.272H16.3633V17.091C16.3633 17.593 15.9513 18 15.4433 18ZM1.63661 17.0905V12.2725H8.18161V18.0005H2.55661C2.04861 18.0005 1.63661 17.5925 1.63661 17.0905ZM17.0995 4.09079H15.2575C15.4365 3.71779 15.5455 3.30479 15.5455 2.86279C15.5455 1.28479 14.2605 -0.000213623 12.6815 -0.000213623C10.8005 -0.000213623 9.66051 1.31979 8.99951 2.56879C8.33851 1.31979 7.19951 -0.000213623 5.31851 -0.000213623C3.73951 -0.000213623 2.45351 1.28479 2.45351 2.86279C2.45351 3.30479 2.56351 3.71779 2.74251 4.09079H0.900512C0.403512 4.09079 -0.000488281 4.67679 -0.000488281 5.40079V9.32679C-0.000488281 10.0498 0.403512 10.6368 0.900512 10.6368H1.63651H8.18151V4.09079H9.81851V10.6368H16.3635H17.0995C17.5965 10.6368 17.9995 10.0498 17.9995 9.32679V5.40079C17.9995 4.67679 17.5965 4.09079 17.0995 4.09079ZM12.6815 4.09079H10.1005C10.4865 3.07479 11.2805 1.63679 12.6815 1.63679C13.3585 1.63679 13.9095 2.18679 13.9095 2.86279C13.9095 3.53979 13.3585 4.09079 12.6815 4.09079ZM5.31851 4.09079C4.64151 4.09079 4.09051 3.53979 4.09051 2.86279C4.09051 2.18679 4.64151 1.63679 5.31851 1.63679C6.71951 1.63679 7.51351 3.07479 7.89951 4.09079H5.31851Z" fill="#00A98B"/>
</svg>
